<?xml version="1.0" encoding="UTF-8" standalone="no"?>
<!DOCTYPE svg PUBLIC "-//W3C//DTD SVG 1.1//EN" "http://www.w3.org/Graphics/SVG/1.1/DTD/svg11.dtd">
<svg width="100%" height="100%" viewBox="0 0 500 500" version="1.1" xmlns="http://www.w3.org/2000/svg" xmlns:xlink="http://www.w3.org/1999/xlink" xml:space="preserve" xmlns:serif="http://www.serif.com/" style="fill-rule:evenodd;clip-rule:evenodd;stroke-linejoin:round;stroke-miterlimit:2;">
    <g transform="matrix(3.358338,0,0,3.358338,-551.525321,-628.195427)">
        <path d="M205,194.1L205,223.9C205,226.3 203.1,228.3 200.7,228.3L170.8,228.3C168.4,228.3 166.5,226.3 166.5,223.9L166.5,194.1C166.5,191.7 168.4,189.7 170.8,189.7L200.7,189.7C203.1,189.7 205,191.7 205,194.1ZM200.7,194.1L170.8,194.1L170.8,223.9L200.7,223.9L200.7,194.1Z" style="fill:#fff;"/>
    </g>
    <g transform="matrix(3.358338,0,0,3.358338,-551.525321,-275.648571)">
        <path d="M205,194.1L205,223.9C205,226.3 203.1,228.3 200.7,228.3L170.8,228.3C168.4,228.3 166.5,226.3 166.5,223.9L166.5,194.1C166.5,191.7 168.4,189.7 170.8,189.7L200.7,189.7C203.1,189.7 205,191.7 205,194.1ZM200.7,194.1L170.8,194.1L170.8,223.9L200.7,223.9L200.7,194.1Z" style="fill:#fff;"/>
    </g>
</svg>
